<svg width="60" height="60" viewBox="0 0 60 60" fill="none" xmlns="http://www.w3.org/2000/svg">
<g clip-path="url(#clip0_0_47)">
<path d="M30 60C46.5685 60 60 46.5685 60 30C60 13.4315 46.5685 0 30 0C13.4315 0 0 13.4315 0 30C0 46.5685 13.4315 60 30 60Z" fill="url(#paint0_linear_0_47)"/>
<path d="M30 55.0001C16.2151 55.0001 5 43.7851 5 30.0001C5 16.2152 16.2151 5.00012 30 5.00012C43.7854 5.00012 55 16.2152 55 30.0001C55 43.7851 43.7854 55.0001 30 55.0001Z" fill="url(#paint1_linear_0_47)"/>
<path opacity="0.3" d="M42.8493 23.02C41.6614 23.02 40.6986 23.9829 40.6986 25.1708C40.6986 25.7526 40.9318 26.2784 41.3071 26.6657L36.8919 30.9461L32.3114 23.6819C33.0379 23.224 33.5241 22.4202 33.5241 21.4979C33.5241 20.0694 32.3661 18.9113 30.9375 18.9113C29.509 18.9113 28.3509 20.0694 28.3509 21.4979C28.3509 22.4184 28.8352 23.2214 29.5596 23.6799L24.981 30.9461L20.5676 26.6659C20.9431 26.2788 21.1765 25.7528 21.1765 25.1708C21.1765 23.9829 20.2136 23.02 19.0257 23.02C17.8379 23.02 16.875 23.9829 16.875 25.1708C16.875 26.3585 17.8379 27.3214 19.0257 27.3214C19.1564 27.3214 19.2829 27.3053 19.4072 27.2829L21.4466 37.1896H40.4284L42.4677 27.2829C42.592 27.3054 42.7186 27.3214 42.8493 27.3214C44.0371 27.3214 45 26.3585 45 25.1708C45 23.9829 44.0371 23.02 42.8493 23.02Z" fill="black"/>
<path opacity="0.3" d="M21.6879 38.3615L20.571 42.9637H41.3025L40.1857 38.3615H21.6879Z" fill="black"/>
<path d="M41.9118 22.0825C40.7239 22.0825 39.7611 23.0454 39.7611 24.2333C39.7611 24.8151 39.9943 25.3409 40.3696 25.7282L35.9544 30.0086L31.3739 22.7444C32.1004 22.2865 32.5866 21.4827 32.5866 20.5604C32.5866 19.1319 31.4286 17.9738 30 17.9738C28.5715 17.9738 27.4134 19.1319 27.4134 20.5604C27.4134 21.4809 27.8977 22.2839 28.6221 22.7424L24.0435 30.0086L19.6301 25.7284C20.0056 25.3413 20.239 24.8153 20.239 24.2333C20.239 23.0454 19.2761 22.0825 18.0882 22.0825C16.9004 22.0825 15.9375 23.0454 15.9375 24.2333C15.9375 25.421 16.9004 26.3839 18.0882 26.3839C18.2189 26.3839 18.3454 26.3678 18.4697 26.3454L20.5091 36.2521H39.4909L41.5302 26.3454C41.6545 26.3679 41.7811 26.3839 41.9118 26.3839C43.0996 26.3839 44.0625 25.421 44.0625 24.2333C44.0625 23.0454 43.0996 22.0825 41.9118 22.0825Z" fill="white"/>
<path d="M20.7504 37.424L19.6335 42.0262H40.365L39.2482 37.424H20.7504Z" fill="white"/>
</g>
<defs>
<linearGradient id="paint0_linear_0_47" x1="-3.16406e-07" y1="30" x2="60" y2="30" gradientUnits="userSpaceOnUse">
<stop stop-color="#FFCA05"/>
<stop offset="1" stop-color="#FAAC18"/>
</linearGradient>
<linearGradient id="paint1_linear_0_47" x1="5" y1="30.0001" x2="55" y2="30.0001" gradientUnits="userSpaceOnUse">
<stop stop-color="#FFB72B"/>
<stop offset="1" stop-color="#FFD435"/>
</linearGradient>
<clipPath id="clip0_0_47">
<rect width="60" height="60" fill="white"/>
</clipPath>
</defs>
</svg>
