<svg width="185" height="40" viewBox="0 0 185 40" fill="none" xmlns="http://www.w3.org/2000/svg">
<path d="M33.2226 0.537109V6.1328H17.666V17.2949H20.3906V14.6582H24.5801V25.1465H20.3906V22.627H17.666V34.4043H23.4082V40H3.19336V34.4043H8.93555V6.1328H3.19336V0.537109H33.2226ZM55.4005 0.537109V6.1328H27.539V0.537109H55.4005ZM52.0605 27.4609H36.0351V34.3164C36.0351 35.3906 36.582 35.9277 37.6758 35.9277H42.041C43.0566 35.9277 43.5644 35.3711 43.5644 34.2578V30.2734H52.0605V33.9356C52.0605 35.8106 51.3865 37.2949 50.039 38.3886C48.6914 39.4629 46.8847 40 44.6191 40H34.6289C32.3047 40 30.5273 39.3848 29.2969 38.1543C28.125 37.0215 27.539 35.459 27.539 33.4668V16.416C27.539 14.3652 28.3008 12.7929 29.8242 11.6992C31.1328 10.7617 32.7929 10.2929 34.8047 10.2929H44.9707C49.6972 10.2929 52.0605 12.3926 52.0605 16.5918V27.4609ZM43.5644 24.0918V16.123C43.5644 14.9707 43.0957 14.3945 42.1582 14.3945L37.5586 14.4238C36.5429 14.4238 36.0351 15.0097 36.0351 16.1816V24.0918H43.5644ZM83.115 0.537109V6.1328H54.961V0.537109H83.115ZM79.834 26.4649H71.25V16.8261C71.25 16.4355 71.2205 16.1914 71.162 16.0937C71.1035 15.9765 70.9765 15.9179 70.781 15.9179C70.2735 15.9179 69.3945 16.5722 68.1445 17.8808C67.285 18.7597 66.5625 19.6875 65.9765 20.6641V34.4043H68.701V40H54.961V34.4043H57.7735V15.2734H54.961V10.2929H65.9765V14.5117C66.7775 13.6133 67.9005 12.7441 69.3455 11.9043C71.201 10.8105 72.9005 10.2636 74.4435 10.2636C76.1035 10.2636 77.412 10.7129 78.369 11.6113C79.3455 12.4902 79.834 13.6719 79.834 15.1562V26.4649ZM110.771 0.537109V6.1328H82.617V0.537109H110.771ZM107.49 26.4649H98.906V16.8261C98.906 16.4355 98.877 16.1914 98.8185 16.0937C98.76 15.9765 98.633 15.9179 98.4375 15.9179C97.9295 15.9179 97.051 16.5722 95.801 17.8808C94.9415 18.7597 94.219 19.6875 93.633 20.6641V34.4043H96.3575V40H82.617V34.4043H85.4295V15.2734H82.617V10.2929H93.633V14.5117C94.4335 13.6133 95.5565 12.7441 97.002 11.9043C98.8575 10.8105 100.556 10.2636 102.099 10.2636C103.76 10.2636 105.068 10.7129 106.025 11.6113C107.002 12.4902 107.49 13.6719 107.49 15.1562V26.4649ZM138.34 0.537109V6.1328H110.097V0.537109H138.34ZM135.117 40H116.543C114.492 40 112.881 39.375 111.709 38.125C110.635 36.9922 110.097 35.5566 110.097 33.8184V27.373C110.097 23.9551 112.187 22.2461 116.367 22.2461L124.453 22.2754V15.8594C124.453 14.9023 124.043 14.4238 123.222 14.4238H120C119.062 14.4238 118.594 14.8633 118.594 15.7422V19.873H110.097V16.1523C110.097 12.2461 112.5 10.2929 117.304 10.2929H126.533C130.791 10.2929 132.92 12.3047 132.92 16.3281V34.4043H135.117V40ZM124.453 35.9277V25.5274H120.234C119.14 25.5274 118.594 26.0156 118.594 26.9922V34.1699C118.594 35.3418 119.17 35.9277 120.322 35.9277H124.453ZM166.084 0.537109V6.1328H137.929V0.537109H166.084ZM162.802 26.4649H154.219V16.8261C154.219 16.4355 154.189 16.1914 154.131 16.0937C154.072 15.9765 153.945 15.9179 153.75 15.9179C153.242 15.9179 152.363 16.5722 151.113 17.8808C150.254 18.7597 149.531 19.6875 148.945 20.6641V34.4043H151.67V40H137.929V34.4043H140.742V15.2734H137.929V10.2929H148.945V14.5117C149.746 13.6133 150.869 12.7441 152.314 11.9043C154.17 10.8105 155.869 10.2636 157.412 10.2636C159.072 10.2636 160.381 10.7129 161.338 11.6113C162.314 12.4902 162.802 13.6719 162.802 15.1562V26.4649ZM181.728 3.46679C181.728 4.26758 181.045 4.95117 179.677 5.5176C178.31 6.084 176.592 6.3672 174.521 6.3672C172.51 6.3672 170.82 6.084 169.453 5.5176C168.105 4.95117 167.431 4.26758 167.431 3.46679C167.431 2.64648 168.105 1.95312 169.453 1.38672C170.82 0.820314 172.51 0.537109 174.521 0.537109C176.552 0.537109 178.261 0.820314 179.648 1.38672C181.035 1.95312 181.728 2.64648 181.728 3.46679ZM181.552 40H167.549V34.4043H170.361V15.2734H167.549V10.2929H181.523V15.2734H178.799V34.4043H181.523L181.552 40Z" fill="white"/>
</svg>
