<svg width="100" height="100" viewBox="0 0 100 100" fill="none" xmlns="http://www.w3.org/2000/svg">
<circle cx="50" cy="50" r="50" fill="#FF0000"/>
<g clip-path="url(#clip0_13_14)">
<path d="M49.9989 20C33.4587 20 20 33.4576 20 50C20 66.5424 33.4587 80 49.9989 80C66.5424 80 79.9989 66.5424 79.9989 50C79.9989 33.4576 66.5424 20 49.9989 20ZM49.9989 76.0002C35.6629 76.0002 23.9998 64.3371 23.9998 50C23.9998 35.6629 35.6639 23.9998 49.9989 23.9998C64.3371 23.9998 75.9991 35.6629 75.9991 50C75.9991 64.3371 64.3382 76.0002 49.9989 76.0002Z" fill="white"/>
<path d="M64.8566 47.8282H51.9993V30.8278C51.9993 29.723 51.1037 28.8273 50 28.8273C48.8974 28.8273 48.0017 29.7241 48.0017 30.8278V51.8269H64.8566C65.9603 51.8269 66.856 50.9323 66.8549 49.8275C66.8549 48.7239 65.9582 47.8282 64.8566 47.8282Z" fill="white"/>
</g>
<defs>
<clipPath id="clip0_13_14">
<rect width="60" height="60" fill="white" transform="translate(20 20)"/>
</clipPath>
</defs>
</svg>
