<svg width="100" height="100" viewBox="0 0 100 100" fill="none" xmlns="http://www.w3.org/2000/svg">
<circle cx="50" cy="50" r="50" fill="#FF0000"/>
<path d="M47.3142 73.5907V59.4677L49.9904 59.9063L52.6665 59.4677V73.5907H47.3142Z" fill="white"/>
<path d="M31.6282 25.3523C31.6282 25.3523 22.3853 20.7309 22.419 29.7826C22.419 29.7826 22.3291 37.7774 27.5465 44.3328C27.5465 44.3328 31.6169 50.1124 38.6672 52.3163C38.6672 52.3163 36.7106 49.3029 35.7324 47.009C35.7324 47.009 29.3231 43.3658 27.018 35.8546C27.018 35.8546 22.9475 25.5435 31.6169 29.2092V25.3523H31.6282Z" fill="white"/>
<path d="M49.9902 59.9063C54.6342 59.9063 58.491 55.7121 58.491 55.7121C63.2698 50.8883 65.8785 42.7024 65.8785 42.7024C69.2856 33.7856 68.0375 20 68.0375 20H49.9902H31.9318C31.9318 20 30.6949 33.7856 34.1019 42.7024C34.1019 42.7024 36.7106 50.8996 41.4895 55.7121C41.4895 55.7121 45.3463 59.9063 49.9902 59.9063Z" fill="white"/>
<path d="M68.4086 25.3523C68.4086 25.3523 77.6515 20.7309 77.6178 29.7826C77.6178 29.7826 77.7077 37.7774 72.4903 44.3328C72.4903 44.3328 68.4199 50.1124 61.3696 52.3163C61.3696 52.3163 63.3261 49.3029 64.3044 47.009C64.3044 47.009 70.7137 43.3658 73.0188 35.8546C73.0188 35.8546 77.0893 25.5435 68.4199 29.2092V25.3523H68.4086Z" fill="white"/>
<path d="M66.0586 75.3223H33.9109V80H66.0586V75.3223Z" fill="white"/>
<path d="M55.5 73.5907H44.4805V75.3224H55.5V73.5907Z" fill="white"/>
</svg>
