<svg width="100" height="100" viewBox="0 0 100 100" fill="none" xmlns="http://www.w3.org/2000/svg">
<circle cx="50" cy="50" r="50" fill="#FF0000"/>
<path d="M45.0004 28V32.9996H52.4998V37.9993H57.4994V32.9996H64.9989V28H45.0004ZM45.0004 42.9989C44.3254 42.9989 43.6976 43.2711 43.2228 43.7211L38.9747 47.9985H32.4991C31.1243 47.9985 29.9993 49.1235 29.9993 50.4983V65.4994C29.9993 66.8742 31.1243 67.9993 32.4991 67.9993H36.7472L43.6233 72.5736C44.0239 72.8481 44.5009 72.9989 45.0004 72.9989H57.5017C58.0507 72.9989 58.575 72.8256 59.0002 72.5016L68.9995 65.0022C69.625 64.5274 70.0008 63.7759 70.0008 62.9996V45.4987C70.0008 44.1239 68.8757 42.9989 67.5009 42.9989H45.0004ZM75.0004 45.4987V60.4998H80V45.4987H75.0004ZM52.4998 48.0007V55.5002H57.4994L50 68.0015V60.5021H45.0004L52.4998 48.0007ZM20 50.5006V63.0019H24.9996V50.5006H20Z" fill="white"/>
</svg>
