<svg width="56" height="78" viewBox="0 0 56 78" fill="none" xmlns="http://www.w3.org/2000/svg">
<path d="M55.1103 30.2769L54.7967 30.1297V30.6129L54.5439 30.8977L54.0895 31.5729L53.8367 31.7425L53.1295 32.5969L52.8447 33.0513L52.5055 33.8129L52.1375 33.8737L51.7983 33.6753L51.5967 32.7697L51.6511 31.7265L51.8815 30.7569L52.4415 29.8513L53.5775 28.1521L54.2559 26.7697L54.3391 25.8001L54.2303 25.4929L54.0319 25.6913L53.6927 26.5361L53.1775 27.3905L52.4159 28.0145L51.5391 28.8593L50.2335 30.3889L49.9807 30.3665L49.8975 30.1041L49.8655 29.4801L49.9487 28.3185L50.3487 27.0193L51.0559 25.5761L51.9935 24.4145L53.1551 23.4225L53.2639 23.1921L53.1263 23.0833L52.5343 23.3905L52.0511 23.7041L51.2287 24.4113L50.2079 25.3169L49.4783 26.3089L48.7679 27.6081L48.3775 28.6609L48.2623 29.7073L48.2079 31.1217L48.5471 32.5969L48.8863 33.8737L49.5391 35.8801L49.9615 38.2865L50.2143 40.1233V41.1153L50.1055 42.1585L49.9359 43.0129L49.6191 43.9729L48.4287 45.4705L47.2127 46.5777L45.6543 47.4545L44.1567 47.5377L43.9583 46.8081L43.4207 45.7553L42.6847 44.7409L42.2015 44.1425L41.5551 43.2657L40.1631 41.9377L38.7487 40.7761L38.1279 40.2929L36.1759 38.9713L33.3727 36.6193L31.8431 34.7217L30.1695 31.9793L29.7151 30.3345L29.8303 29.3137L30.0607 29.1153L30.6527 29.5153L31.5903 29.9697L32.3519 29.9377L33.2255 30.3377L34.1631 30.9073L34.6463 31.2977L35.2703 31.7297L35.9167 31.8129L36.0639 31.5281L35.8943 31.4961L35.6959 31.5793L35.3823 31.3809L35.1039 30.9585L34.7039 30.3057L33.9359 29.5985L33.1743 29.3137L32.7519 29.2305L32.8383 29.0065H33.4303L34.1151 29.2305L35.1071 29.8833L35.5615 30.0817L35.7311 29.8513L35.4463 29.4609L34.6783 28.7761L33.4879 28.1553L32.0511 27.5953L31.7663 27.3649L32.0511 27.1665L32.6975 27.4801L33.8879 27.6785L35.1615 28.1873L35.8367 28.5265L37.0271 28.6961L37.8815 28.5809L38.3583 28.3569L39.0111 27.9569L39.2959 27.6817L39.3279 27.4833L39.0623 27.5057L38.8095 27.7681L37.9647 28.0465L37.2287 28.1617L36.6047 28.0785L36.0063 27.6017L35.4687 26.9713L34.8223 26.4945L33.8559 26.2961L32.9247 25.9825L32.5247 25.7297L32.5567 25.5057L32.9247 25.5601H33.7471L34.5695 25.5057H35.4143L35.8687 25.4225L36.2367 25.7297L36.8287 25.8769H37.3119L37.5359 25.7073L37.1455 25.5921L36.6623 25.2785L36.1535 24.8017L35.3311 24.3697L34.6559 24.2865L34.0351 24.2033L33.8047 24.0657L34.2591 23.8129H34.9951L35.5647 23.9825L36.1247 24.2673L37.0303 24.6577L37.9359 24.6897L38.4191 24.4593L38.5567 24.1521L38.1887 23.9825L37.4271 23.9505L36.7743 23.7265L36.2079 23.2433L35.5839 22.9297L34.7615 22.7921L34.0543 22.5393L33.7471 22.1393L33.8015 21.9409L34.2559 22.0337L34.8255 22.2033L35.1647 22.4561L35.6479 22.5105L35.7023 22.2577L35.1967 21.8577L35.0495 21.4961L35.7311 21.6049L36.3775 21.9441L37.1999 22.0369L37.5167 22.6289L38.3615 23.1377L38.4063 23.1313L38.5919 23.0545L38.8159 22.9169L38.7071 22.7473L38.3903 22.7697L38.1055 22.3793L37.5359 21.5025L36.5439 20.6193L35.5295 20.1649L35.2447 19.8257L34.6207 19.0897L34.0511 18.7825L33.9679 18.4977L34.2207 18.3281L34.8191 18.4657L36.0031 18.8049L36.5727 19.0033L36.9407 19.5185L37.5327 19.8257H37.9871L38.5855 19.9953L39.2383 19.8801L39.4911 19.6561L39.1231 19.3425L38.5855 19.2049L37.9615 19.1217L37.5935 18.8081L37.1103 18.1009L36.9951 17.6465L36.3711 17.0865L35.6959 16.6545L34.9279 16.1777L34.0831 15.3873L34.0287 15.1569H34.2207L35.3279 16.0337L36.4575 16.6865L37.0559 17.1409L37.8175 17.8481L38.4991 18.2161L38.8927 18.3313L39.0911 18.0177L38.8063 17.9089L38.2143 17.3713L38.0447 16.7729L37.4239 16.0977L36.9087 15.6657L36.6559 15.0193L35.7791 13.7137L34.5887 12.6673L34.5343 12.3281L34.9567 12.3825L35.5551 12.6897L36.5151 13.0897L37.5071 13.1441L38.2431 13.4897L39.0335 13.6273L39.7087 13.4289L39.6543 13.1441L38.8863 12.9745L38.2111 12.6673L36.8511 12.0145L36.1151 11.6145L35.7215 11.1377L35.8591 10.9681L36.0575 11.1057L36.3647 11.2209L36.7647 11.2529H37.4175L37.9775 11.1921L38.8319 11.1377L39.4847 11.3905L40.1599 11.8737L40.4447 11.9569L40.4767 11.7041L40.2463 11.4737L39.5711 10.8497L38.5183 10.3121L37.7567 10.2289L36.3135 10.1457L35.9775 9.7457L35.2415 9.0097L34.4191 8.4497L34.1119 8.1649L34.3647 7.9665L34.7551 8.1361L35.4623 8.5041L36.2623 8.7889L37.3375 9.0417H38.2687L39.0367 9.8961L39.6607 10.2641L39.8847 10.0337L39.0399 8.7889L37.7119 7.8289L36.6047 7.5665L35.6671 6.5841L34.8447 6.1009L33.7151 5.8161L34.3391 5.2785L35.4463 4.9105L36.2687 4.6577L36.4607 4.4049L36.3519 4.2065L35.8975 4.0913L35.4687 4.0081L32.2719 4.0689L31.7023 3.4385L31.0559 3.0161L30.2335 2.6481L29.1583 2.4785H28.2271L27.9743 2.1393L27.0975 1.2017L26.0447 0.241699L25.3983 1.3169L25.3663 1.6561L25.6735 2.0561L25.7055 2.3953L25.4815 2.5937L24.7679 2.6481L23.4687 2.2801L22.1919 2.0049L21.5999 2.0273L20.6335 2.2257L20.7487 2.5649L21.2863 2.5425L21.5103 2.5809L21.5039 2.8817L21.1903 2.9521L20.7839 2.8977L20.1695 3.0289L19.7087 3.1761L19.3407 3.1985L19.2255 3.3585L19.3567 3.5825L19.6351 3.6433L19.8975 3.5665L20.1983 3.4353L20.5055 3.4193L21.1583 3.4513L21.6575 3.6049L22.2495 3.7521L23.1167 4.1425L23.1935 4.3281L23.1007 4.4753L22.6943 4.6225L22.4479 4.7377L22.0095 5.0289L21.3407 5.3841L20.5279 5.9601L19.5839 6.3377L18.8479 6.8209L18.1791 7.1121L17.5487 7.2657L16.9951 7.2817L16.2335 7.2977L15.9423 7.3745L15.7727 7.7297L15.6415 8.1137L15.4943 8.3761L15.1263 8.9297L14.7711 9.5441L14.5343 9.8449L14.5119 10.1905L14.5343 10.6737V11.1889L14.8479 11.4737L15.1263 11.6209L15.4559 11.5985L15.9935 11.4513L16.6015 11.2657L17.4239 10.9361L17.7535 10.9521L17.8303 11.1601L17.7535 11.3585L17.4751 11.5057L16.6367 11.8193L16.0063 12.0049L15.8847 12.2129L15.8623 12.4369L16.0703 12.6225L16.5087 12.6769H16.8639L17.3087 12.6609L17.7919 12.5457L18.4927 12.1777L18.9535 12.0849L19.3439 12.0081L19.6447 12.1073L20.0831 12.0849L20.5151 12.1393L20.8703 12.3473L21.4239 12.4017L22.1471 12.6257L22.5375 12.6801L23.1455 12.5713L23.9231 12.6257L24.2623 12.7569L24.4479 13.0705L24.4095 13.4769L24.3167 13.9761L24.1311 14.5521L23.8687 15.2753L23.6063 16.0657L23.3279 16.7889L23.1423 17.2881L22.5119 18.2705L21.7503 19.2305L21.0655 20.1745L20.1983 21.0417L19.3983 21.7169L18.8895 22.2545L18.6207 23.1377L18.2495 23.5761L17.7727 23.9153L17.1967 24.3921L16.3135 24.9297L15.5679 25.3041L15.0911 25.8481L14.7519 26.2897L14.4127 26.4977L13.9359 26.7345L13.6287 26.6641L13.0207 26.3857L12.3455 25.9473L11.3535 25.5089L10.2399 24.9265L9.66389 24.4881L8.95029 23.9121L8.16629 23.2657L7.32149 22.9585L6.57589 22.8273L5.62229 23.0257L4.94709 23.4033L4.36469 23.8097L4.06389 24.5553L3.85589 25.1313L3.61909 26.0145L3.35029 26.5521L3.08149 27.3745L3.04309 28.3569L2.80629 28.9329L2.53749 29.8481L2.30069 30.7633L1.86229 31.6177L1.62549 32.4625L1.48789 33.5153L1.11029 34.3985L0.873492 34.9041L0.841492 35.4129L0.809492 36.2673V37.7585L0.639893 38.3729L0.739093 38.9105L0.700692 39.7937L1.00789 40.5009L1.24469 40.6705L1.68309 40.5329L2.08949 40.1649L2.67189 39.4577L3.18069 38.6449L3.37909 37.9697L3.24789 37.4257L3.07829 36.7505L2.87029 35.9377L2.67189 35.0865L2.56309 34.4401V33.8321L2.70069 33.1473L3.03989 32.1009L3.37909 31.5569L3.68629 31.2817L3.92309 30.9137L4.36149 30.8753L4.56949 30.7441L4.87669 30.4657L5.21589 30.1649L5.52309 29.7585L5.65429 29.2817L5.76309 28.8753L5.79509 28.3313L5.89429 27.8545L6.13109 27.5537L6.36789 27.4833L6.67509 27.5825L7.11349 27.8193L7.59029 28.3633L8.09909 29.1089L8.67509 29.7841L9.28949 30.3281L9.83349 30.7665L10.3711 31.0033L10.5407 31.3425L10.3711 31.5121L9.79509 31.3809L8.98229 31.3105L7.92949 31.1025L6.91509 30.9041L5.69269 30.8657L4.97909 30.9041L4.43509 31.2433L3.85909 31.7489L3.38229 32.5617L3.01429 33.4833L2.97589 34.1585L3.18389 35.3809L3.66069 36.9393L3.89749 38.1617L4.19829 39.3521L4.40629 40.1905L4.50549 40.9745L4.77429 41.8577L4.98229 43.2113L5.18069 43.6881L5.69589 44.0945L6.17269 44.5713L6.71029 45.3873L7.08789 46.3409L7.66389 47.1857L8.50869 47.9985L9.11989 48.3761L9.52629 48.4081L9.86549 48.3089L10.0735 47.8321L10.3039 47.4257L10.4415 46.8497V45.5281L10.2719 45.1505C10.2399 45.1505 10.2399 44.9137 10.2399 44.8817L10.1695 44.6449L9.89109 44.2385L9.38229 43.7297L8.43829 43.3233L8.09269 43.2145L8.03189 42.6385L8.06389 42.2705L7.41749 41.5249L7.01109 40.5713L6.67189 39.2177L6.39669 37.9665L5.92949 36.9841L5.75989 35.7937L6.02869 35.0801L6.50549 34.8113H6.87349L7.41749 35.2881L8.20149 35.7649L9.01429 36.0657L10.9823 37.0193L11.9359 37.5633V38.0689L12.8127 38.5745L13.9359 38.9521H16.2783L16.1087 39.3905L16.0095 39.6273L16.3103 40.1969L16.8863 41.0513L17.8079 41.9665L18.9215 43.1889L19.8751 44.0337L21.6575 45.4001L23.1007 46.1745L24.1855 46.7505L25.5775 47.6945L26.8607 48.6097L27.9679 49.5473L29.1199 51.1057L29.1743 51.7585L29.4367 52.4337L30.1439 52.9425L30.7903 53.1953L31.1903 53.1409L31.5071 52.8337L31.9615 52.3505L32.0703 51.6977L32.6079 50.7665L32.7231 50.0529L32.8095 49.2625L32.8639 48.6385L33.0399 48.2481L33.4015 48.0721H33.7471L33.7695 48.3345L33.5167 48.6097L33.2927 49.2081L33.1231 49.5761V50.0305L33.0623 50.9905L32.9247 51.4737L32.5023 52.2033L31.9327 53.1409L31.3663 54.1617L31.0303 55.4897L30.8607 56.8817L31.0303 58.4337L31.2543 59.3393L31.7919 60.5297L32.4767 61.9441L33.0143 63.0513L33.7503 64.2129L34.6271 65.2881L34.7967 65.6561V65.9089L34.6815 66.2225L34.3743 66.7313L33.8911 67.4065L32.8991 68.6833L31.9071 69.7585L31.0015 70.7505L30.6111 70.9809L29.8111 71.2881L29.3343 71.7425L29.0815 72.2577L28.5119 72.9649L27.8687 73.6721L27.0783 74.4945L26.5951 75.3393L26.3103 76.1937L26.1407 76.9009L26.1727 77.4705L26.5119 77.8321H27.7567L28.2943 77.7777L28.8575 77.4417L29.5935 77.1025L29.7087 76.8177H29.9615L30.3519 76.6481L30.7199 76.3025L30.9215 74.9489L30.8063 74.6641L30.7519 74.3793L30.9535 74.4337L31.1743 74.4945L31.4047 74.3249L31.7727 74.0945L32.1631 73.5857L32.6463 72.9009L32.8991 72.2801L32.9535 71.7713L33.2703 71.5409L33.7247 71.2881L34.0927 71.0641L34.3999 70.4433L35.0527 69.7617L36.2719 68.6321L37.1999 68.0113L38.1375 67.4961L38.3583 67.2721L38.4447 67.0417L38.6431 66.7889L38.5055 66.4529L38.4767 65.8289L38.3519 65.2465L38.2047 64.9073L37.8815 64.3537L37.3663 63.7073L37.1135 63.2241L37.0591 62.7153V62.0337L37.1743 61.6433L37.4815 60.5905L37.7951 60.0817L38.1343 59.8833L38.7551 59.4929L39.4911 58.8625L40.4831 58.0177L41.1583 57.3105L41.8399 56.5201L42.5471 55.7201L43.0559 54.8209L43.4783 54.0529L43.8783 53.1761L44.1631 52.2065L44.2495 51.3073L44.3039 50.6225L44.5343 50.3985L44.7871 50.3377L45.0111 50.4849L45.2095 50.9617L45.2639 51.6145L45.3567 52.2353L45.2959 52.6577L45.2415 53.3105V54.7025L45.4111 55.8001L45.6095 56.0849L45.7791 56.0625L45.8623 55.8641L45.7471 55.4097V54.6417L45.9775 53.9953L46.0863 53.0577L46.2015 52.4049L46.3487 52.0977H46.5183L46.6559 52.2353L46.7935 52.7729L46.9087 53.2881L46.8543 54.1009L46.6847 55.2081L46.1695 56.2833L45.6927 57.3041L45.4079 58.1809L45.3535 58.7185L45.4079 59.3393L45.6063 59.9377H45.9743L46.1663 59.6753L46.0575 59.3905L45.9743 58.8817L46.3103 58.4273L46.7039 57.8897L46.9663 57.3841L47.5871 56.3921L48.0959 55.4865L48.3199 54.4945L48.5183 53.1889V51.8961L48.2655 50.9905L47.7567 50.2833L47.6959 49.9473L47.9263 49.8321L48.2111 49.9697L48.5791 50.4241L49.0335 51.2465L49.2255 52.2065L49.3407 53.4833L49.6255 54.3665L49.6575 54.3889L50.0479 55.2657L50.3007 55.3585L50.4159 55.1281L50.3871 54.9905L50.1951 54.3377L50.1663 53.6849L50.1951 52.7249L50.3647 51.6497V51.1121L50.3039 50.6577L49.8495 49.7489L49.4591 49.0961L49.5967 48.8433L50.1343 48.7281L50.8703 48.3921L51.6607 47.9697L52.3679 47.3489L53.2735 46.1265L53.7887 45.1121L54.2111 44.1457L54.3487 42.5937L54.3807 41.2017L54.1567 39.4801L53.8943 38.2353L53.6703 36.9585L53.5327 35.6305L53.6415 34.7857L53.8719 33.7329L54.3487 32.6865L55.0303 31.6113L55.2831 30.9265L55.3375 30.5873L55.1103 30.2769ZM16.6111 9.7841L16.3871 10.0081L16.0735 10.1841L15.6511 10.2769L15.5039 10.1841L15.4495 9.8833L15.5743 9.4609L15.8751 9.0449L16.1215 8.9233L16.3455 8.9457L16.6143 9.1697L16.7359 9.3681L16.6111 9.7841ZM17.7151 9.5089L17.6383 9.5473L17.4847 9.5537L17.3631 9.4929L17.2639 9.3777L17.2799 9.2401L17.3951 9.0545L17.4879 8.9937H17.6095L17.7183 9.0161L17.7567 9.1313L17.7727 9.3329L17.7151 9.5089ZM19.0847 10.7697L18.9695 10.8241H18.8223L18.7391 10.7793L18.6943 10.6545L18.7103 10.5009L18.7935 10.4081L18.9023 10.4017L19.0175 10.4337L19.0719 10.5169L19.1103 10.6545L19.0847 10.7697ZM21.7023 6.8049L21.5263 6.8529L21.3119 6.9073L21.0751 7.1057L20.5439 7.4289L19.8143 7.6273L19.3599 7.7425L18.9215 7.7745L18.6975 7.7521L19.0527 7.4513L19.7055 7.1377L20.3583 6.8465L20.9791 6.5553L21.2639 6.4177L21.4783 6.3857L21.6543 6.4241L21.7919 6.6481L21.7023 6.8049ZM1.91989 38.6513L1.68949 38.5969L1.57429 38.3729L1.80469 38.2577L2.00629 38.2801L2.06069 38.4785L1.91989 38.6513ZM4.89269 26.7729L4.73269 27.3713L4.52469 28.0465L4.15669 28.6161L3.95829 28.6705L3.88789 28.5169V28.2161L3.92629 27.8097L4.07349 27.0417L4.39669 26.4817L4.56629 26.2833L4.81269 26.2129L4.90549 26.3505L4.89269 26.7729ZM6.53109 24.5201L6.16309 24.6577L5.81109 24.6961L5.59669 24.6129L5.54229 24.4593L5.60309 24.2513L5.78869 24.1201L6.17269 24.0753L6.37109 24.0593L6.50869 24.0977L6.63029 24.2129L6.63669 24.3441L6.53109 24.5201ZM9.53269 28.5713L9.45589 28.5777L9.27029 28.4625L9.01109 28.3153L8.78709 28.1297L8.57909 27.9217L8.48629 27.8065L8.46389 27.6369L8.50869 27.5537L8.58549 27.5601L8.71669 27.5825L8.86389 27.7137L9.03349 27.8673L9.30229 28.0273L9.46229 28.2193L9.56149 28.3665L9.56789 28.4977L9.53269 28.5713ZM4.48629 32.6033L4.34869 32.7953L4.21109 32.8497L4.11829 32.7729L4.12469 32.4977L4.35509 32.0977L4.42549 31.9825L4.54069 31.9281L4.64949 31.9985V32.2289L4.57909 32.3889L4.48629 32.6033ZM5.44629 39.7425L5.40149 39.8129H5.34709L5.24789 39.7297L5.17109 39.5825L5.04949 39.3137L4.87349 38.9617L4.69749 38.4081L4.60469 37.8865L4.58869 37.2785L4.67189 36.6801L4.71669 36.6097H4.79989L4.88309 36.6865L4.96629 37.0481L4.97269 37.4161L5.11989 37.8833L5.29589 38.3825L5.37269 38.8209L5.48149 39.5345L5.44629 39.7425ZM8.87349 46.2801L8.96629 46.2577L9.19029 46.3057L9.28949 46.4145L9.31189 46.5457L9.28949 46.6993L9.15829 46.7985L8.99829 46.7697L8.88309 46.6609L8.83509 46.4241L8.87349 46.2801ZM11.0943 35.9313L10.8639 35.9473L10.5631 35.9025L10.3551 35.8097L9.87189 35.5089L9.39509 35.1537L8.85749 34.8305L8.67189 34.6929L8.91829 34.6865L9.18709 34.7857L9.64789 34.9009L10.0703 35.1089L10.5631 35.3233L10.9151 35.4833L11.1007 35.6529L11.1327 35.8065L11.0943 35.9313ZM13.6511 29.3073L13.3279 30.2129L13.0431 31.0801L12.5439 31.7009L12.2911 31.8929L12.0223 31.9921L11.8687 31.8833L11.8527 31.6849L12.0671 31.4545L12.2911 31.0865L12.5759 30.4657L12.7455 29.8737L12.8991 29.2913L13.1999 28.7313L13.4015 28.4465L13.5711 28.3985L13.7247 28.4593L13.7727 28.6449L13.6511 29.3073ZM25.9743 11.3361L26.2271 11.0129L26.5183 10.7377L26.7807 10.5617L26.9727 10.5457L27.1039 10.6289V10.8657L27.0335 11.1281L26.7423 11.4065L26.3967 11.6209L26.0447 11.7137L25.8751 11.6593L25.8527 11.5217L25.9743 11.3361ZM24.9471 5.3745L25.1935 5.2913L25.3631 5.2145L25.5775 5.2913L25.6479 5.4449L25.4879 5.6305L25.2639 5.7137L24.9951 5.7297L24.8959 5.5441L24.9471 5.3745ZM22.8095 7.3649L22.7103 7.0961L22.8575 6.7953L23.1807 6.5265L23.6959 6.5041L24.0735 6.5745L24.3647 6.7761L24.5119 7.1217L24.6335 7.4897L24.6111 7.8129L24.2879 7.9345H23.9423L23.5263 7.7649L23.1583 7.5665L22.8095 7.3649ZM24.0703 11.3073L23.6319 11.4065H23.2383L23.1679 11.2753L23.2671 11.1377L23.3823 11.0673L24.1503 10.5233L24.6175 10.2321L24.9023 10.0561H25.0015L25.0175 10.2641L24.8255 10.4177L24.7327 10.7345L24.4959 11.1025L24.0703 11.3073ZM18.9535 25.3521L18.8991 25.2689L18.9151 25.0609L19.0527 24.9073L19.5359 24.7089L20.5439 24.3953L21.5519 24.2705H22.1663L22.6719 24.3793L23.1487 24.6161L23.5263 24.9841L23.5487 25.1921L23.5039 25.3393L23.3439 25.3713L23.0975 25.3393L22.7199 25.2305L22.3647 25.1249L21.9263 25.0769H21.3823L20.9215 25.0705L20.5151 25.1089L20.0607 25.1857L19.6991 25.2849L19.3471 25.3617L19.1167 25.3777L18.9535 25.3521ZM25.3311 46.2033L24.8159 45.8801L23.9487 45.3041L22.6047 44.3985L22.0607 44.0305L21.4847 43.5793L20.8543 43.0033L20.3935 42.6417L19.8399 42.1041L19.4783 41.7265L19.2543 41.3809L19.1711 40.9649L19.1871 40.5809L19.3343 40.4337L19.5871 40.4497L19.9871 40.6897L20.4159 41.1057L20.7327 41.4897L21.0719 41.8289L21.4015 42.2353L21.8175 42.6897L22.2111 43.1281L23.5007 44.2481L24.2143 44.8849L24.8511 45.4609L25.3663 45.9441L25.4655 46.1041L25.5359 46.2193L25.3311 46.2033ZM25.6767 28.6385L25.5167 28.7313L25.1263 28.7377L24.8639 28.6769L24.7167 28.4849L24.5951 28.3313V28.0849L24.7871 27.8385L25.0783 27.6081L25.3535 27.5697L25.6063 27.6401L25.6831 27.7777L25.7151 28.0849L25.7535 28.4081L25.6767 28.6385ZM26.4511 15.9761L26.2911 16.5681L25.9295 17.5121L25.4463 18.3121L24.9087 19.3105L24.0479 20.5169L23.3951 21.2017L22.9407 21.3777L22.7935 21.3713L22.7711 21.2561L22.9087 20.9329L23.4623 20.0785L23.9167 19.1409L24.3231 18.3345L25.0463 16.9361L25.7311 15.8449L26.0831 15.5057L26.3519 15.4609L26.4671 15.6465L26.4511 15.9761ZM28.0287 11.8737L27.9455 12.0817L27.6447 12.4337L27.2287 12.6321L26.8127 12.8017L26.3807 12.8081H26.1119L26.0191 12.6833L26.1183 12.5073L26.3551 12.3985L26.7711 12.1969L27.2479 11.9057L27.4719 11.7457L27.8111 11.5825L28.0255 11.6369V11.8737H28.0287ZM30.2783 24.8369L30.1247 24.8817L29.9263 24.8657L29.7951 24.7345L29.8271 24.6193L29.9583 24.5265L30.1567 24.5105L30.3263 24.6481L30.3327 24.7633L30.2783 24.8369ZM30.5087 24.0849H30.2783L30.1535 24.0145V23.8449L30.2079 23.7297L30.3295 23.6913H30.4927L30.6463 23.7905L30.6623 23.9121L30.5087 24.0849ZM30.9311 22.9233L30.7743 23.0001L30.6143 23.0225L30.4447 22.9841L30.3903 22.8689V22.7313L30.5279 22.6321L30.6975 22.6001H30.8607L30.9599 22.6833L30.9823 22.8145L30.9311 22.9233ZM31.1455 21.9473L30.9375 22.0081L30.7071 22.0017L30.5855 21.9185L30.5791 21.8257L30.6175 21.6881L30.7999 21.6049L31.0015 21.5761L31.1711 21.6593L31.2319 21.8193L31.1455 21.9473ZM31.6447 20.5809L31.5295 20.7345L31.4207 20.8721L31.2063 20.9169H30.9919L30.8063 20.8241L30.7903 20.6769L30.9215 20.5393L31.0207 20.4241L31.1679 20.3697L31.4047 20.2993H31.5903L31.6735 20.3985L31.6447 20.5809ZM31.9519 19.4353L31.8527 19.5953L31.6767 19.6273L31.4911 19.6753L31.2607 19.6689L31.1615 19.5537L31.1775 19.3841L31.2543 19.2689L31.4079 19.1601L31.6447 19.1281L31.8591 19.1729L31.9519 19.3041V19.4353ZM32.2751 18.5905L32.0383 18.6897L31.8527 18.7505H31.6223L31.5295 18.7345L31.4143 18.6961L31.3535 18.5809L31.3823 18.4337L31.5359 18.2961L31.6671 18.2257L31.8143 18.1649L32.0223 18.1585L32.2239 18.2289L32.3071 18.3889L32.2751 18.5905ZM32.3071 17.2753L32.2239 17.4129L32.0767 17.5345L31.8623 17.6113L31.6095 17.6337L31.4015 17.6049L31.3471 17.4801L31.3791 17.3809L31.4623 17.3201L31.8303 17.1281L32.0063 17.0897L32.2239 17.1121L32.3071 17.1889V17.2753ZM31.5903 14.1649H31.7215L31.7919 14.1201L31.8207 13.9825L31.8495 13.8769L31.9135 13.8001L32.0287 13.7937L32.1663 13.8321L32.2911 13.9025L32.3071 14.0497L32.2911 14.2865L32.1087 14.4465L31.8687 14.5617L31.7695 14.5457L31.6703 14.5073L31.5711 14.3825L31.5551 14.2449L31.5903 14.1649ZM31.5903 13.1825V13.0673L31.6927 12.9681L31.8527 12.9073L32.0447 12.9009L32.1599 12.9393L32.1919 13.0385L32.1279 13.1377L32.0287 13.2465L31.8655 13.2849H31.6959L31.5903 13.1825ZM31.5999 16.2929L31.7375 16.2097L31.9007 16.1713L32.0607 16.1553L32.1759 16.1617L32.2207 16.2321V16.3473L32.1663 16.4689L32.0575 16.5905L31.7887 16.7057L31.6575 16.6897L31.5359 16.6513L31.5039 16.5201L31.5295 16.3729L31.5999 16.2929ZM32.2911 15.3489L32.2527 15.4481L32.0831 15.5633L31.8527 15.6465L31.7247 15.6145L31.5999 15.5441L31.5775 15.4193L31.5935 15.2657L31.6863 15.1729L31.8175 15.0801L32.0095 15.0417L32.1727 15.0353L32.2815 15.0673L32.3199 15.1761L32.2911 15.3489ZM32.3519 12.0977L32.3295 12.2289L32.2463 12.3441L32.1087 12.3985L31.9775 12.4305L31.8623 12.4465L31.7087 12.4305L31.6703 12.3377L31.7087 12.2161L31.8015 12.1329L31.9039 12.0785L32.0735 11.9633L32.2495 11.9697L32.3519 12.0977ZM32.1151 10.9681L32.2079 11.0225L32.2239 11.1537L32.2143 11.2785L32.0703 11.4097L31.9327 11.4641L31.8399 11.4481L31.7695 11.4097V11.2849L31.7759 11.1537L31.8751 11.0481L31.9679 10.9937L32.1151 10.9681ZM31.9359 10.3313L31.8975 10.4689L31.7951 10.5457L31.7023 10.6001L31.5775 10.6161L31.4783 10.5553L31.4559 10.4465L31.5007 10.3537L31.5935 10.2289L31.6863 10.1841L31.8079 10.1777L31.9103 10.2385L31.9359 10.3313ZM30.6783 7.8481L30.9023 7.8321L31.2159 7.7105L31.5007 7.6497L31.7375 7.6337L31.8591 7.7489L31.6895 8.0017L31.5199 8.0465L31.2383 8.1457L30.8703 8.3537L30.5183 8.5393L30.1119 8.7089L29.9743 8.7249L29.8591 8.6865L29.8751 8.5169L29.8143 8.3569V8.0657L29.9455 7.7361L30.1279 7.5377L30.2463 7.3841L30.3679 7.2305H30.5535L30.6815 7.3617L30.6527 7.6849L30.6783 7.8481ZM30.5471 4.7921L30.6303 4.8465L30.6015 4.9297L30.4767 5.0769L30.3071 5.0929L30.1055 5.0641L29.9903 5.0097L29.9071 4.9105L30.0063 4.8273L30.1503 4.7665L30.3743 4.7601L30.5471 4.7921ZM29.4879 3.6017L29.8719 3.5633L30.0799 3.6337L30.2431 3.7169L30.2495 3.8545L30.1119 3.9153L29.8975 3.9313L29.6895 3.9153L29.5263 3.8833L29.3887 3.7841L29.4879 3.6017ZM32.4607 43.4993L32.2751 43.6689L32.1055 43.8609L31.9359 44.2161L31.8815 44.4625L31.7663 44.5553L31.5423 44.5265L31.4335 44.3953L31.4719 43.9281L31.5935 43.3425L31.6543 43.0193L31.8015 42.6129L31.9103 42.4913L32.0703 42.4593H32.2847L32.3775 42.5457L32.5375 42.7825L32.5695 43.2369L32.4607 43.4993ZM32.8287 37.9441L31.8591 37.4353L31.3535 36.9521L30.5087 36.1073L29.7407 35.1377L29.0655 34.0401L28.5279 32.6801L28.3039 31.7425L28.4095 31.2049L28.7167 31.1217L29.0303 31.2689L29.2319 31.8289L29.4015 32.6513L29.7087 33.5057L30.5087 34.7505L31.5839 36.3345L32.8287 37.9441ZM32.8991 54.4689L32.6815 55.0673L32.5759 55.3585L32.3743 55.8129L32.2207 56.3441L32.1759 56.4977L32.1215 56.5969H31.9743L31.8591 56.2513L31.8527 55.8577L31.9359 55.3201L32.1279 54.5841L32.4447 54.1297L32.7295 53.7777L32.9823 53.7457L33.0527 53.9761L32.8991 54.4689ZM34.0191 62.5073L33.9647 62.5137L33.8655 62.4689L33.6799 62.2001L33.4047 61.7457L33.2735 61.4449L33.1967 61.0289V60.6449L33.2127 60.4145L33.2671 60.3441H33.3887L33.5199 60.3985L33.6895 60.5969L33.8143 60.9425L33.8975 61.4033L33.9039 61.7713L33.9103 61.9025L33.9807 62.0785L34.0511 62.4337L34.0191 62.5073ZM28.3423 75.7905L28.2271 76.0145L28.0895 76.2225L27.8655 76.3697L27.6511 76.4145H27.5583L27.4591 76.3377L27.4271 76.1777L27.4655 75.9761L27.5807 75.7457L27.8943 75.4321L28.1311 75.2849L28.3007 75.2785L28.3871 75.3489L28.4095 75.5089L28.3423 75.7905ZM30.4479 72.3953L30.3295 72.5553L30.1855 72.6385L30.0095 72.6993L29.8783 72.6609L29.8015 72.5233L29.8175 72.3857L29.9487 72.2225L30.2111 72.0625L30.4031 72.0305L30.4959 72.0849L30.5215 72.2225L30.4479 72.3953ZM35.1487 67.7073L34.8095 68.2065L34.3551 68.7377L33.8399 69.2369L33.2959 69.8065L32.7871 70.2673L32.3871 70.6289L32.1631 70.7761L32.0159 70.7697L31.9455 70.6545L31.9775 70.4625L32.6015 69.7713L33.4751 68.8273L34.5375 67.7585L34.7359 67.5441L35.0367 67.3521L35.1455 67.3745L35.2351 67.4897L35.1487 67.7073ZM37.1071 66.1937L37.2383 66.1457L37.4079 66.1521L37.4847 66.1905L37.4911 66.2737L37.4239 66.3825L37.2703 66.5201L37.1327 66.6737H37.0399L36.9343 66.6129L36.9087 66.4817L36.9535 66.3505L37.1071 66.1937ZM42.7775 50.7281L42.7455 50.9809L42.6687 51.2177L42.6207 51.4321L42.4607 51.5249L42.3135 51.4865L42.2399 51.3489L42.1919 50.8657L41.8687 50.4209L41.8399 50.0529L42.0223 49.8225L42.2143 49.7617L42.3999 49.7777L42.5535 49.9153L42.7295 50.1393L42.7775 50.3921V50.7281ZM52.3455 41.9473L52.3295 42.3089L52.1855 43.0993L51.9839 43.7745L51.7535 44.3665L51.4079 45.0097L51.0143 45.5633L50.4223 46.2545L49.7471 46.9009L49.4015 46.9841L49.2159 46.9009L49.1871 46.6545L49.3343 46.3249L49.5327 45.9633L49.8943 45.4865L50.2847 44.9553L50.6527 44.3793L51.0143 43.7873L51.2895 43.2113L51.4527 42.6193L51.5903 41.9441L51.6223 41.1921L51.6511 40.5169L51.6063 39.9249L51.5359 39.2401L51.4751 38.5937L51.4367 38.2321L51.6351 38.0337L51.7663 38.1041L51.8655 38.4177L52.0639 39.0385L52.2271 39.7841L52.3423 40.4977V41.9473H52.3455Z" fill="white"/>
</svg>
