<svg width="32" height="32" viewBox="0 0 32 32" fill="none" xmlns="http://www.w3.org/2000/svg">
<g clip-path="url(#clip0_0_210)">
<path d="M0 16C0 24.8227 7.17731 32 16 32C24.8227 32 32 24.8227 32 16C32 7.17731 24.8227 0 16 0C7.17731 0 0 7.17731 0 16Z" fill="#FF0000"/>
<path d="M15.0813 4.95616L15.0631 4.76032L14.7837 4.42144L14.6983 4.39648L14.6388 4.48192L14.6484 4.58368L14.5543 4.66912L14.5447 4.7872L14.6551 4.84672L14.8096 4.95712H15.0813V4.95616ZM17.2327 23.0358L17.1175 22.817L16.9629 22.4992L16.84 22.167L16.7498 21.7936L16.7104 21.473V21.1619L16.7431 20.7952L16.7844 20.6109L16.7354 20.4544L16.6346 20.3738L16.432 20.224L16.289 20.1222L16.2621 19.9264L16.1949 19.7171L16.0682 19.5117L15.9319 19.337L15.761 19.1738L15.544 19.0096L15.3002 18.8272L15.1706 18.7648L15.042 18.7254L14.9335 18.7437L14.8394 18.8061L14.7981 18.9078L14.826 19.0922L14.92 19.505L15.0832 20.0493L15.2196 20.3747L15.402 20.7894L15.5316 21.0333L15.7293 21.3933L15.9664 21.7946L16.1536 22.0528L16.3101 22.2621L16.3168 22.3773L16.2957 22.4714L16.2084 22.5059L15.9453 22.5194L15.4845 22.4915L15.1044 22.4426L14.7703 22.383L14.3642 22.2678L14.1588 22.1776L14.0224 22.1181L13.8679 22.0902L13.6903 22.097L13.5962 22.1382H13.4666L13.1604 22.0902L12.9856 22.0307L12.7946 22.0173L12.4903 22.0106L12.2599 21.9894H12.0477L11.8384 22.0029L11.6954 22.0624L11.5936 22.0902L11.5591 22.1382L11.5658 22.2333L11.6628 22.3898L11.8452 22.6413L11.9536 22.6874L12.1245 22.8093L12.3204 22.9178L12.5325 22.9869L12.8368 22.9936L13.1085 22.9658L13.3389 22.913L13.5348 22.8506L13.6173 22.8918L13.6567 22.9725L13.7258 22.9936L13.8938 22.9869L14.106 23.0013L14.2144 23.0358L14.3431 23.0013L14.7626 23.0541L15.0487 23.0954L15.5162 23.1971L15.857 23.2979L16.194 23.4131L16.4906 23.5494L16.6058 23.632L16.912 23.6454L17.0752 23.6042L17.1626 23.4266L17.2567 23.2096L17.2327 23.0358ZM12.4404 22.3398L12.4192 22.3878L12.3828 22.432L12.353 22.4416L12.2906 22.4435L12.2349 22.4272L12.21 22.4061L12.1735 22.36L12.1754 22.3187L12.1965 22.289L12.2676 22.2659L12.3501 22.2496L12.4125 22.2477L12.4423 22.2659L12.449 22.3005L12.4404 22.3398ZM15.7428 22.7613L15.7178 22.7939L15.6391 22.7987L15.5028 22.7757L15.3828 22.7546L15.258 22.7478L15.138 22.7382L14.8634 22.6691L14.6464 22.6019L14.4919 22.551L14.4688 22.5069L14.4756 22.4589L14.5053 22.4474L14.7079 22.5117L14.7981 22.5482L14.8922 22.5693L15.0074 22.5856L15.1984 22.6067L15.3645 22.6317L15.521 22.6432L15.6477 22.671L15.7188 22.6893L15.7399 22.7171V22.7613H15.7428ZM16.6836 22.6259L16.6586 22.672L16.6125 22.7085L16.5453 22.7248L16.5088 22.7085L16.4973 22.6691L16.5088 22.625L16.5712 22.5789L16.6173 22.5674H16.6682L16.6845 22.5885V22.6259H16.6836Z" fill="white"/>
<path d="M24.1331 13.3831L24.039 13.339V13.4839L23.9632 13.5694L23.8269 13.7719L23.751 13.8228L23.5389 14.0791L23.4534 14.2154L23.3517 14.4439L23.2413 14.4622L23.1395 14.4026L23.079 14.131L23.0954 13.818L23.1645 13.5271L23.3325 13.2554L23.6733 12.7457L23.8768 12.331L23.9018 12.0401L23.8691 11.9479L23.8096 12.0074L23.7078 12.2609L23.5533 12.5172L23.3248 12.7044L23.0618 12.9578L22.6701 13.4167L22.5942 13.41L22.5693 13.3313L22.5597 13.1441L22.5846 12.7956L22.7046 12.4058L22.9168 11.9729L23.1981 11.6244L23.5466 11.3268L23.5792 11.2577L23.5379 11.225L23.3603 11.3172L23.2154 11.4113L22.9686 11.6234L22.6624 11.8951L22.4435 12.1927L22.2304 12.5825L22.1133 12.8983L22.0787 13.2122L22.0624 13.6366L22.1642 14.0791L22.2659 14.4622L22.4618 15.0641L22.5885 15.786L22.6643 16.337V16.6346L22.6317 16.9476L22.5808 17.2039L22.4858 17.4919L22.1286 17.9412L21.7638 18.2734L21.2963 18.5364L20.847 18.5614L20.7875 18.3425L20.6262 18.0266L20.4054 17.7223L20.2605 17.5428L20.0666 17.2798L19.649 16.8814L19.2246 16.5329L19.0384 16.3879L18.4528 15.9914L17.6118 15.2858L17.153 14.7166L16.6509 13.8938L16.5146 13.4004L16.5491 13.0942L16.6182 13.0346L16.7958 13.1546L17.0771 13.291L17.3056 13.2814L17.5677 13.4014L17.849 13.5722L17.9939 13.6894L18.1811 13.819L18.375 13.8439L18.4192 13.7585L18.3683 13.7489L18.3088 13.7738L18.2147 13.7143L18.1312 13.5876L18.0112 13.3918L17.7808 13.1796L17.5523 13.0942L17.4256 13.0692L17.4515 13.002H17.6291L17.8346 13.0692L18.1322 13.265L18.2685 13.3246L18.3194 13.2554L18.2339 13.1383L18.0035 12.9329L17.6464 12.7466L17.2154 12.5786L17.1299 12.5095L17.2154 12.45L17.4093 12.5441L17.7664 12.6036L18.1485 12.7562L18.351 12.858L18.7082 12.9089L18.9645 12.8743L19.1075 12.8071L19.3034 12.6871L19.3888 12.6046L19.3984 12.545L19.3187 12.5518L19.2429 12.6305L18.9894 12.714L18.7686 12.7486L18.5814 12.7236L18.4019 12.5806L18.2406 12.3914L18.0467 12.2484L17.7568 12.1889L17.4774 12.0948L17.3574 12.019L17.367 11.9518L17.4774 11.9681H17.7242L17.9709 11.9518H18.2243L18.3606 11.9268L18.471 12.019L18.6486 12.0631H18.7936L18.8608 12.0122L18.7437 11.9777L18.5987 11.8836L18.4461 11.7406L18.1994 11.611L17.9968 11.586L17.8106 11.561L17.7414 11.5198L17.8778 11.4439H18.0986L18.2694 11.4948L18.4374 11.5802L18.7091 11.6974L18.9808 11.707L19.1258 11.6378L19.167 11.5457L19.0566 11.4948L18.8282 11.4852L18.6323 11.418L18.4624 11.273L18.2752 11.179L18.0285 11.1377L17.8163 11.0618L17.7242 10.9418L17.7405 10.8823L17.8768 10.9102L18.0477 10.961L18.1494 11.0369L18.2944 11.0532L18.3107 10.9774L18.159 10.8574L18.1149 10.7489L18.3194 10.7815L18.5133 10.8833L18.76 10.9111L18.855 11.0887L19.1085 11.2414L19.1219 11.2394L19.1776 11.2164L19.2448 11.1751L19.2122 11.1242L19.1171 11.131L19.0317 11.0138L18.8608 10.7508L18.5632 10.4858L18.2589 10.3495L18.1734 10.2478L17.9862 10.027L17.8154 9.9348L17.7904 9.84936L17.8662 9.79848L18.0458 9.83976L18.401 9.94152L18.5718 10.001L18.6822 10.1556L18.8598 10.2478H18.9962L19.1757 10.2986L19.3715 10.2641L19.4474 10.1969L19.337 10.1028L19.1757 10.0615L18.9885 10.0366L18.8781 9.94248L18.7331 9.73032L18.6986 9.594L18.5114 9.426L18.3088 9.2964L18.0784 9.15336L17.825 8.91624L17.8086 8.84712H17.8662L18.1984 9.11016L18.5373 9.306L18.7168 9.44232L18.9453 9.65448L19.1498 9.76488L19.2678 9.79944L19.3274 9.70536L19.2419 9.67272L19.0643 9.51144L19.0134 9.33192L18.8272 9.12936L18.6726 8.99976L18.5968 8.80584L18.3338 8.41416L17.9766 8.10024L17.9603 7.99848L18.087 8.0148L18.2666 8.10696L18.5546 8.22696L18.8522 8.24328L19.073 8.34696L19.3101 8.38824L19.5126 8.32872L19.4963 8.24328L19.2659 8.1924L19.0634 8.10024L18.6554 7.9044L18.4346 7.7844L18.3165 7.64136L18.3578 7.59048L18.4173 7.63176L18.5094 7.66632L18.6294 7.67592H18.8253L18.9933 7.65768L19.2496 7.64136L19.4454 7.7172L19.648 7.86216L19.7334 7.88712L19.743 7.81128L19.6739 7.74216L19.4714 7.55496L19.1555 7.39368L18.927 7.36872L18.4941 7.34376L18.3933 7.22376L18.1725 7.00296L17.9258 6.83496L17.8336 6.74952L17.9094 6.69L18.0266 6.74088L18.2387 6.85128L18.4787 6.93672L18.8013 7.01256H19.0806L19.311 7.26888L19.4982 7.37928L19.5654 7.31016L19.312 6.93672L18.9136 6.64872L18.5814 6.57L18.3002 6.27528L18.0534 6.13032L17.7146 6.04488L17.9018 5.8836L18.2339 5.7732L18.4806 5.69736L18.5382 5.62152L18.5056 5.562L18.3693 5.52744L18.2406 5.50248L17.2816 5.52072L17.1107 5.3316L16.9168 5.20488L16.6701 5.09448L16.3475 5.0436H16.0682L15.9923 4.94184L15.7293 4.66056L15.4134 4.37256L15.2195 4.69512L15.2099 4.79688L15.3021 4.91688L15.3117 5.01864L15.2445 5.07816L15.0304 5.09448L14.6406 4.98408L14.2576 4.90152L14.08 4.90824L13.7901 4.96776L13.8246 5.06952L13.9859 5.0628L14.0531 5.07432L14.0512 5.16456L13.9571 5.18568L13.8352 5.16936L13.6509 5.20872L13.5126 5.25288L13.4022 5.2596L13.3677 5.3076L13.407 5.3748L13.4906 5.39304L13.5693 5.37L13.6595 5.33064L13.7517 5.32584L13.9475 5.33544L14.0973 5.38152L14.2749 5.42568L14.535 5.5428L14.5581 5.59848L14.5302 5.64264L14.4083 5.6868L14.3344 5.72136L14.2029 5.80872L14.0022 5.91528L13.7584 6.08808L13.4752 6.20136L13.2544 6.34632L13.0538 6.43368L12.8646 6.47976L12.6986 6.48456L12.4701 6.48936L12.3827 6.5124L12.3318 6.61896L12.2925 6.73416L12.2483 6.81288L12.1379 6.97896L12.0314 7.16328L11.9603 7.25352L11.9536 7.3572L11.9603 7.50216V7.65672L12.0544 7.74216L12.1379 7.78632L12.2368 7.7796L12.3981 7.73544L12.5805 7.67976L12.8272 7.58088L12.9261 7.58568L12.9491 7.64808L12.9261 7.7076L12.8426 7.75176L12.591 7.84584L12.4019 7.90152L12.3654 7.96392L12.3587 8.03112L12.4211 8.0868L12.5526 8.10312H12.6592L12.7926 8.09832L12.9376 8.06376L13.1478 7.95336L13.2861 7.92552L13.4032 7.90248L13.4934 7.93224L13.625 7.92552L13.7546 7.94184L13.8611 8.00424L14.0272 8.02056L14.2442 8.08776L14.3613 8.10408L14.5437 8.07144L14.777 8.08776L14.8787 8.12712L14.9344 8.2212L14.9229 8.34312L14.895 8.49288L14.8394 8.66568L14.7606 8.88264L14.6819 9.11976L14.5984 9.33672L14.5427 9.48648L14.3536 9.7812L14.1251 10.0692L13.9197 10.3524L13.6595 10.6126L13.4195 10.8151L13.2669 10.9764L13.1862 11.2414L13.0749 11.3729L12.9318 11.4746L12.759 11.6177L12.4941 11.779L12.2704 11.8913L12.1274 12.0545L12.0256 12.187L11.9238 12.2494L11.7808 12.3204L11.6886 12.2993L11.5062 12.2158L11.3037 12.0842L11.0061 11.9527L10.672 11.778L10.4992 11.6465L10.2851 11.4737L10.0499 11.2798L9.79647 11.1876L9.57279 11.1482L9.28671 11.2078L9.08415 11.321L8.90943 11.443L8.81919 11.6666L8.75679 11.8394L8.68575 12.1044L8.60511 12.2657L8.52447 12.5124L8.51295 12.8071L8.44191 12.9799L8.36127 13.2545L8.29023 13.529L8.15871 13.7854L8.08767 14.0388L8.04639 14.3546L7.93311 14.6196L7.86207 14.7713L7.85247 14.9239L7.84287 15.1802V15.6276L7.79199 15.8119L7.82175 15.9732L7.81023 16.2382L7.90239 16.4503L7.97343 16.5012L8.10495 16.4599L8.22687 16.3495L8.40159 16.1374L8.55423 15.8935L8.61375 15.691L8.57439 15.5278L8.52351 15.3252L8.46111 15.0814L8.40159 14.826L8.36895 14.6321V14.4497L8.41023 14.2442L8.51199 13.9303L8.61375 13.7671L8.70591 13.6846L8.77695 13.5742L8.90847 13.5626L8.97087 13.5233L9.06303 13.4398L9.16479 13.3495L9.25695 13.2276L9.29631 13.0846L9.32895 12.9626L9.33855 12.7994L9.36831 12.6564L9.43935 12.5662L9.51039 12.545L9.60255 12.5748L9.73407 12.6458L9.87711 12.809L10.0298 13.0327L10.2026 13.2353L10.3869 13.3985L10.5501 13.53L10.7114 13.601L10.7622 13.7028L10.7114 13.7537L10.5386 13.7143L10.2947 13.6932L9.97887 13.6308L9.67455 13.5713L9.30783 13.5598L9.09375 13.5713L8.93055 13.673L8.75775 13.8247L8.61471 14.0686L8.50431 14.345L8.49279 14.5476L8.55519 14.9143L8.69823 15.3818L8.76927 15.7486L8.85951 16.1057L8.92191 16.3572L8.95167 16.5924L9.03231 16.8574L9.09471 17.2634L9.15423 17.4065L9.30879 17.5284L9.45183 17.6714L9.61311 17.9162L9.72639 18.2023L9.89919 18.4558L10.1526 18.6996L10.336 18.8129L10.4579 18.8225L10.5597 18.7927L10.6221 18.6497L10.6912 18.5278L10.7325 18.355V17.9585L10.6816 17.8452C10.672 17.8452 10.672 17.7742 10.672 17.7646L10.6509 17.6935L10.5674 17.5716L10.4147 17.419L10.1315 17.297L10.0278 17.2644L10.0096 17.0916L10.0192 16.9812L9.82527 16.7575L9.70335 16.4714L9.60159 16.0654L9.51903 15.69L9.37887 15.3953L9.32799 15.0382L9.40863 14.8241L9.55167 14.7434H9.66207L9.82527 14.8865L10.0605 15.0295L10.3043 15.1198L10.8947 15.4058L11.1808 15.569V15.7207L11.4438 15.8724L11.7808 15.9857H12.4835L12.4326 16.1172L12.4029 16.1882L12.4931 16.3591L12.6659 16.6154L12.9424 16.89L13.2765 17.2567L13.5626 17.5102L14.0973 17.9201L14.5302 18.1524L14.8557 18.3252L15.2733 18.6084L15.6582 18.883L15.9904 19.1642L16.336 19.6318L16.3523 19.8276L16.431 20.0302L16.6432 20.1828L16.8371 20.2586L16.9571 20.2423L17.0522 20.1502L17.1885 20.0052L17.2211 19.8094L17.3824 19.53L17.417 19.3159L17.4429 19.0788L17.4592 18.8916L17.512 18.7745L17.6205 18.7217H17.7242L17.7309 18.8004L17.655 18.883L17.5878 19.0625L17.537 19.1729V19.3092L17.5187 19.5972L17.4774 19.7422L17.3507 19.961L17.1798 20.2423L17.0099 20.5486L16.9091 20.947L16.8582 21.3646L16.9091 21.8302L16.9763 22.1018L17.1376 22.459L17.343 22.8833L17.5043 23.2154L17.7251 23.5639L17.9882 23.8865L18.039 23.9969V24.0727L18.0045 24.1668L17.9123 24.3194L17.7674 24.522L17.4698 24.905L17.1722 25.2276L16.9005 25.5252L16.7834 25.5943L16.5434 25.6865L16.4003 25.8228L16.3245 25.9774L16.1536 26.1895L15.9606 26.4017L15.7235 26.6484L15.5786 26.9018L15.4931 27.1582L15.4422 27.3703L15.4518 27.5412L15.5536 27.6497H15.927L16.0883 27.6334L16.2573 27.5326L16.4781 27.4308L16.5126 27.3454H16.5885L16.7056 27.2945L16.816 27.1908L16.8765 26.7847L16.8419 26.6993L16.8256 26.6138L16.8861 26.6302L16.9523 26.6484L17.0214 26.5975L17.1318 26.5284L17.249 26.3758L17.3939 26.1703L17.4698 25.9841L17.4861 25.8314L17.5811 25.7623L17.7174 25.6865L17.8278 25.6193L17.92 25.433L18.1158 25.2286L18.4816 24.8897L18.76 24.7034L19.0413 24.5489L19.1075 24.4817L19.1334 24.4126L19.193 24.3367L19.1517 24.2359L19.143 24.0487L19.1056 23.874L19.0614 23.7722L18.9645 23.6062L18.8099 23.4122L18.7341 23.2673L18.7178 23.1146V22.9102L18.7523 22.793L18.8445 22.4772L18.9386 22.3246L19.0403 22.265L19.2266 22.1479L19.4474 21.9588L19.745 21.7054L19.9475 21.4932L20.152 21.2561L20.3642 21.0161L20.5168 20.7463L20.6435 20.5159L20.7635 20.2529L20.849 19.962L20.8749 19.6922L20.8912 19.4868L20.9603 19.4196L21.0362 19.4014L21.1034 19.4455L21.1629 19.5886L21.1792 19.7844L21.207 19.9706L21.1888 20.0974L21.1725 20.2932V20.7108L21.2234 21.0401L21.2829 21.1255L21.3338 21.1188L21.3587 21.0593L21.3242 20.923V20.6926L21.3933 20.4986L21.4259 20.2174L21.4605 20.0215L21.5046 19.9294H21.5555L21.5968 19.9706L21.6381 20.1319L21.6726 20.2865L21.6563 20.5303L21.6054 20.8625L21.4509 21.185L21.3078 21.4913L21.2224 21.7543L21.2061 21.9156L21.2224 22.1018L21.2819 22.2814H21.3923L21.4499 22.2026L21.4173 22.1172L21.3923 21.9646L21.4931 21.8282L21.6112 21.667L21.6899 21.5153L21.8762 21.2177L22.0288 20.946L22.096 20.6484L22.1555 20.2567V19.8689L22.0797 19.5972L21.927 19.385L21.9088 19.2842L21.9779 19.2497L22.0634 19.291L22.1738 19.4273L22.3101 19.674L22.3677 19.962L22.4022 20.345L22.4877 20.61L22.4973 20.6167L22.6144 20.8798L22.6902 20.9076L22.7248 20.8385L22.7162 20.7972L22.6586 20.6014L22.6499 20.4055L22.6586 20.1175L22.7094 19.795V19.6337L22.6912 19.4974L22.5549 19.2247L22.4378 19.0289L22.479 18.953L22.6403 18.9185L22.8611 18.8177L23.0982 18.691L23.3104 18.5047L23.5821 18.138L23.7366 17.8337L23.8634 17.5438L23.9046 17.0782L23.9142 16.6606L23.847 16.1441L23.7683 15.7706L23.7011 15.3876L23.6598 14.9892L23.6925 14.7358L23.7616 14.4199L23.9046 14.106L24.1091 13.7834L24.185 13.578L24.2013 13.4762L24.1331 13.3831ZM12.5834 7.23528L12.5162 7.30248L12.4221 7.35528L12.2954 7.38312L12.2512 7.35528L12.2349 7.26504L12.2723 7.13832L12.3626 7.01352L12.4365 6.97704L12.5037 6.98376L12.5843 7.05096L12.6208 7.11048L12.5834 7.23528ZM12.9146 7.15272L12.8915 7.16424L12.8454 7.16616L12.809 7.14792L12.7792 7.11336L12.784 7.07208L12.8186 7.0164L12.8464 6.99816H12.8829L12.9155 7.00488L12.927 7.03944L12.9318 7.09992L12.9146 7.15272ZM13.3254 7.53096L13.2909 7.54728H13.2467L13.2218 7.53384L13.2083 7.4964L13.2131 7.45032L13.2381 7.42248L13.2707 7.42056L13.3053 7.43016L13.3216 7.45512L13.3331 7.4964L13.3254 7.53096ZM14.1107 6.34152L14.0579 6.35592L13.9936 6.37224L13.9226 6.43176L13.7632 6.52872L13.5443 6.58824L13.408 6.6228L13.2765 6.6324L13.2093 6.62568L13.3158 6.53544L13.5117 6.44136L13.7075 6.354L13.8938 6.26664L13.9792 6.22536L14.0435 6.21576L14.0963 6.22728L14.1376 6.29448L14.1107 6.34152ZM8.17599 15.8954L8.10687 15.8791L8.07231 15.8119L8.14143 15.7774L8.20191 15.7841L8.21823 15.8436L8.17599 15.8954ZM9.06783 12.3319L9.01983 12.5114L8.95743 12.714L8.84703 12.8849L8.78751 12.9012L8.76639 12.8551V12.7649L8.77791 12.643L8.82207 12.4126L8.91903 12.2446L8.96991 12.185L9.04383 12.1639L9.07167 12.2052L9.06783 12.3319ZM9.55935 11.6561L9.44895 11.6974L9.34335 11.7089L9.27903 11.6839L9.26271 11.6378L9.28095 11.5754L9.33663 11.5361L9.45183 11.5226L9.51135 11.5178L9.55263 11.5294L9.58911 11.5639L9.59103 11.6033L9.55935 11.6561ZM10.4598 12.8714L10.4368 12.8734L10.3811 12.8388L10.3034 12.7946L10.2362 12.739L10.1738 12.6766L10.1459 12.642L10.1392 12.5911L10.1526 12.5662L10.1757 12.5681L10.215 12.5748L10.2592 12.6142L10.3101 12.6602L10.3907 12.7082L10.4387 12.7658L10.4685 12.81L10.4704 12.8494L10.4598 12.8714ZM8.94591 14.081L8.90463 14.1386L8.86335 14.155L8.83551 14.1319L8.83743 14.0494L8.90655 13.9294L8.92767 13.8948L8.96223 13.8785L8.99487 13.8996V13.9687L8.97375 14.0167L8.94591 14.081ZM9.23391 16.2228L9.22047 16.2439H9.20415L9.17439 16.219L9.15135 16.1748L9.11487 16.0942L9.06207 15.9886L9.00927 15.8225L8.98143 15.666L8.97663 15.4836L9.00159 15.3041L9.01503 15.283H9.03999L9.06495 15.306L9.08991 15.4145L9.09183 15.5249L9.13599 15.665L9.18879 15.8148L9.21183 15.9463L9.24447 16.1604L9.23391 16.2228ZM10.2621 18.1841L10.2899 18.1774L10.3571 18.1918L10.3869 18.2244L10.3936 18.2638L10.3869 18.3098L10.3475 18.3396L10.2995 18.331L10.265 18.2983L10.2506 18.2273L10.2621 18.1841ZM10.9283 15.0794L10.8592 15.0842L10.769 15.0708L10.7066 15.043L10.5616 14.9527L10.4186 14.8462L10.2573 14.7492L10.2016 14.7079L10.2755 14.706L10.3562 14.7358L10.4944 14.7703L10.6211 14.8327L10.769 14.897L10.8746 14.945L10.9302 14.9959L10.9398 15.042L10.9283 15.0794ZM11.6954 13.0922L11.5984 13.3639L11.513 13.6241L11.3632 13.8103L11.2874 13.8679L11.2067 13.8977L11.1606 13.865L11.1558 13.8055L11.2202 13.7364L11.2874 13.626L11.3728 13.4398L11.4237 13.2622L11.4698 13.0874L11.56 12.9194L11.6205 12.834L11.6714 12.8196L11.7174 12.8378L11.7318 12.8935L11.6954 13.0922ZM15.3923 7.70088L15.4682 7.60392L15.5555 7.52136L15.6342 7.46856L15.6918 7.46376L15.7312 7.48872V7.55976L15.7101 7.63848L15.6227 7.722L15.519 7.78632L15.4134 7.81416L15.3626 7.79784L15.3558 7.75656L15.3923 7.70088ZM15.0842 5.9124L15.1581 5.88744L15.209 5.8644L15.2733 5.88744L15.2944 5.93352L15.2464 5.9892L15.1792 6.01416L15.0986 6.01896L15.0688 5.96328L15.0842 5.9124ZM14.4429 6.50952L14.4131 6.42888L14.4573 6.33864L14.5542 6.258L14.7088 6.25128L14.8221 6.2724L14.9094 6.33288L14.9536 6.43656L14.9901 6.54696L14.9834 6.64392L14.8864 6.6804H14.7827L14.6579 6.62952L14.5475 6.57L14.4429 6.50952ZM14.8211 7.69224L14.6896 7.722H14.5715L14.5504 7.68264L14.5802 7.64136L14.6147 7.62024L14.8451 7.45704L14.9853 7.36968L15.0707 7.31688H15.1005L15.1053 7.37928L15.0477 7.42536L15.0198 7.5204L14.9488 7.6308L14.8211 7.69224ZM13.2861 11.9057L13.2698 11.8807L13.2746 11.8183L13.3158 11.7722L13.4608 11.7127L13.7632 11.6186L14.0656 11.5812H14.2499L14.4016 11.6138L14.5446 11.6849L14.6579 11.7953L14.6646 11.8577L14.6512 11.9018L14.6032 11.9114L14.5293 11.9018L14.416 11.8692L14.3094 11.8375L14.1779 11.8231H14.0147L13.8765 11.8212L13.7546 11.8327L13.6182 11.8558L13.5098 11.8855L13.4042 11.9086L13.335 11.9134L13.2861 11.9057ZM15.1994 18.161L15.0448 18.0641L14.7846 17.8913L14.3814 17.6196L14.2182 17.5092L14.0454 17.3738L13.8563 17.201L13.7181 17.0926L13.552 16.9313L13.4435 16.818L13.3763 16.7143L13.3514 16.5895L13.3562 16.4743L13.4003 16.4302L13.4762 16.435L13.5962 16.507L13.7248 16.6318L13.8198 16.747L13.9216 16.8487L14.0205 16.9706L14.1453 17.107L14.2634 17.2385L14.6502 17.5745L14.8643 17.7655L15.0554 17.9383L15.2099 18.0833L15.2397 18.1313L15.2608 18.1658L15.1994 18.161ZM15.303 12.8916L15.255 12.9194L15.1379 12.9214L15.0592 12.9031L15.015 12.8455L14.9786 12.7994V12.7255L15.0362 12.6516L15.1235 12.5825L15.2061 12.571L15.2819 12.5921L15.305 12.6334L15.3146 12.7255L15.3261 12.8225L15.303 12.8916ZM15.5354 9.09288L15.4874 9.27048L15.3789 9.55368L15.2339 9.79368L15.0726 10.0932L14.8144 10.4551L14.6186 10.6606L14.4822 10.7134L14.4381 10.7114L14.4314 10.6769L14.4726 10.5799L14.6387 10.3236L14.775 10.0423L14.897 9.8004L15.1139 9.38088L15.3194 9.05352L15.425 8.95176L15.5056 8.93832L15.5402 8.994L15.5354 9.09288ZM16.0086 7.86216L15.9837 7.92456L15.8934 8.03016L15.7686 8.08968L15.6438 8.14056L15.5142 8.14248H15.4336L15.4058 8.10504L15.4355 8.05224L15.5066 8.0196L15.6314 7.95912L15.7744 7.87176L15.8416 7.82376L15.9434 7.7748L16.0077 7.79112V7.86216H16.0086ZM16.6835 11.7511L16.6374 11.7646L16.5779 11.7598L16.5386 11.7204L16.5482 11.6858L16.5875 11.658L16.647 11.6532L16.6979 11.6945L16.6998 11.729L16.6835 11.7511ZM16.7526 11.5255H16.6835L16.6461 11.5044V11.4535L16.6624 11.419L16.6989 11.4074H16.7478L16.7939 11.4372L16.7987 11.4737L16.7526 11.5255ZM16.8794 11.177L16.8323 11.2001L16.7843 11.2068L16.7334 11.1953L16.7171 11.1607V11.1194L16.7584 11.0897L16.8093 11.0801H16.8582L16.888 11.105L16.8947 11.1444L16.8794 11.177ZM16.9437 10.8842L16.8813 10.9025L16.8122 10.9006L16.7757 10.8756L16.7738 10.8478L16.7853 10.8065L16.84 10.7815L16.9005 10.7729L16.9514 10.7978L16.9696 10.8458L16.9437 10.8842ZM17.0934 10.4743L17.0589 10.5204L17.0262 10.5617L16.9619 10.5751H16.8976L16.8419 10.5473L16.8371 10.5031L16.8765 10.4618L16.9062 10.4273L16.9504 10.411L17.0214 10.3898H17.0771L17.1021 10.4196L17.0934 10.4743ZM17.1856 10.1306L17.1558 10.1786L17.103 10.1882L17.0474 10.2026L16.9782 10.2007L16.9485 10.1662L16.9533 10.1153L16.9763 10.0807L17.0224 10.0481L17.0934 10.0385L17.1578 10.0519L17.1856 10.0913V10.1306ZM17.2826 9.8772L17.2115 9.90696L17.1558 9.9252H17.0867L17.0589 9.9204L17.0243 9.90888L17.0061 9.87432L17.0147 9.83016L17.0608 9.78888L17.1002 9.76776L17.1443 9.74952L17.2067 9.7476L17.2672 9.76872L17.2922 9.81672L17.2826 9.8772ZM17.2922 9.48264L17.2672 9.52392L17.223 9.5604L17.1587 9.58344L17.0829 9.59016L17.0205 9.58152L17.0042 9.54408L17.0138 9.51432L17.0387 9.49608L17.1491 9.43848L17.2019 9.42696L17.2672 9.43368L17.2922 9.45672V9.48264ZM17.0771 8.54952H17.1165L17.1376 8.53608L17.1462 8.4948L17.1549 8.46312L17.1741 8.44008L17.2086 8.43816L17.2499 8.44968L17.2874 8.4708L17.2922 8.51496L17.2874 8.586L17.2326 8.634L17.1606 8.66856L17.1309 8.66376L17.1011 8.65224L17.0714 8.6148L17.0666 8.57352L17.0771 8.54952ZM17.0771 8.2548V8.22024L17.1078 8.19048L17.1558 8.17224L17.2134 8.17032L17.248 8.18184L17.2576 8.2116L17.2384 8.24136L17.2086 8.274L17.1597 8.28552H17.1088L17.0771 8.2548ZM17.08 9.18792L17.1213 9.16296L17.1702 9.15144L17.2182 9.14664L17.2528 9.14856L17.2662 9.16968V9.20424L17.2499 9.24072L17.2173 9.2772L17.1366 9.31176L17.0973 9.30696L17.0608 9.29544L17.0512 9.25608L17.0589 9.21192L17.08 9.18792ZM17.2874 8.90472L17.2758 8.93448L17.225 8.96904L17.1558 8.994L17.1174 8.9844L17.08 8.96328L17.0733 8.92584L17.0781 8.87976L17.1059 8.85192L17.1453 8.82408L17.2029 8.81256L17.2518 8.81064L17.2845 8.82024L17.296 8.85288L17.2874 8.90472ZM17.3056 7.92936L17.2989 7.96872L17.2739 8.00328L17.2326 8.0196L17.1933 8.0292L17.1587 8.034L17.1126 8.0292L17.1011 8.00136L17.1126 7.96488L17.1405 7.93992L17.1712 7.9236L17.2221 7.88904L17.2749 7.89096L17.3056 7.92936ZM17.2346 7.59048L17.2624 7.6068L17.2672 7.64616L17.2643 7.6836L17.2211 7.72296L17.1798 7.73928L17.152 7.73448L17.1309 7.72296V7.68552L17.1328 7.64616L17.1626 7.61448L17.1904 7.59816L17.2346 7.59048ZM17.1808 7.39944L17.1693 7.44072L17.1386 7.46376L17.1107 7.48008L17.0733 7.48488L17.0435 7.46664L17.0368 7.434L17.0502 7.40616L17.0781 7.36872L17.1059 7.35528L17.1424 7.35336L17.1731 7.3716L17.1808 7.39944ZM16.8035 6.65448L16.8707 6.64968L16.9648 6.6132L17.0502 6.59496L17.1213 6.59016L17.1578 6.62472L17.1069 6.70056L17.056 6.714L16.9715 6.74376L16.8611 6.80616L16.7555 6.86184L16.6336 6.91272L16.5923 6.91752L16.5578 6.906L16.5626 6.85512L16.5443 6.80712V6.71976L16.5837 6.62088L16.6384 6.56136L16.6739 6.51528L16.7104 6.4692H16.7661L16.8045 6.50856L16.7958 6.60552L16.8035 6.65448ZM16.7642 5.73768L16.7891 5.754L16.7805 5.77896L16.743 5.82312L16.6922 5.82792L16.6317 5.81928L16.5971 5.80296L16.5722 5.7732L16.6019 5.74824L16.6451 5.73L16.7123 5.72808L16.7642 5.73768ZM16.4464 5.38056L16.5616 5.36904L16.624 5.39016L16.673 5.41512L16.6749 5.4564L16.6336 5.47464L16.5693 5.47944L16.5069 5.47464L16.4579 5.46504L16.4166 5.43528L16.4464 5.38056ZM17.3382 17.3498L17.2826 17.4007L17.2317 17.4583L17.1808 17.5649L17.1645 17.6388L17.1299 17.6666L17.0627 17.658L17.0301 17.6186L17.0416 17.4785L17.0781 17.3028L17.0963 17.2058L17.1405 17.0839L17.1731 17.0474L17.2211 17.0378H17.2854L17.3133 17.0638L17.3613 17.1348L17.3709 17.2711L17.3382 17.3498ZM17.4486 15.6833L17.1578 15.5306L17.0061 15.3857L16.7526 15.1322L16.5222 14.8414L16.3197 14.5121L16.1584 14.1041L16.0912 13.8228L16.1229 13.6615L16.215 13.6366L16.3091 13.6807L16.3696 13.8487L16.4205 14.0954L16.5126 14.3518L16.7526 14.7252L17.0752 15.2004L17.4486 15.6833ZM17.4698 20.6407L17.4045 20.8202L17.3728 20.9076L17.3123 21.0439L17.2662 21.2033L17.2528 21.2494L17.2365 21.2791H17.1923L17.1578 21.1754L17.1558 21.0574L17.1808 20.8961L17.2384 20.6753L17.3334 20.539L17.4189 20.4334L17.4947 20.4238L17.5158 20.4929L17.4698 20.6407ZM17.8058 23.0522L17.7894 23.0542L17.7597 23.0407L17.704 22.9601L17.6214 22.8238L17.5821 22.7335L17.559 22.6087V22.4935L17.5638 22.4244L17.5802 22.4033H17.6166L17.656 22.4196L17.7069 22.4791L17.7443 22.5828L17.7693 22.721L17.7712 22.8314L17.7731 22.8708L17.7942 22.9236L17.8154 23.0302L17.8058 23.0522ZM16.1027 27.0372L16.0682 27.1044L16.0269 27.1668L15.9597 27.211L15.8954 27.2244H15.8675L15.8378 27.2014L15.8282 27.1534L15.8397 27.0929L15.8742 27.0238L15.9683 26.9297L16.0394 26.8855L16.0902 26.8836L16.1162 26.9047L16.1229 26.9527L16.1027 27.0372ZM16.7344 26.0186L16.6989 26.0666L16.6557 26.0916L16.6029 26.1098L16.5635 26.0983L16.5405 26.057L16.5453 26.0158L16.5846 25.9668L16.6634 25.9188L16.721 25.9092L16.7488 25.9255L16.7565 25.9668L16.7344 26.0186ZM18.1446 24.6122L18.0429 24.762L17.9066 24.9214L17.752 25.0711L17.5888 25.242L17.4362 25.3802L17.3162 25.4887L17.249 25.5329L17.2048 25.531L17.1837 25.4964L17.1933 25.4388L17.3805 25.2314L17.6426 24.9482L17.9613 24.6276L18.0208 24.5633L18.111 24.5057L18.1437 24.5124L18.1706 24.547L18.1446 24.6122ZM18.7322 24.1582L18.7715 24.1438L18.8224 24.1457L18.8454 24.1572L18.8474 24.1822L18.8272 24.2148L18.7811 24.2561L18.7398 24.3022H18.712L18.6803 24.2839L18.6726 24.2446L18.6861 24.2052L18.7322 24.1582ZM20.4333 19.5185L20.4237 19.5943L20.4006 19.6654L20.3862 19.7297L20.3382 19.7575L20.2941 19.746L20.272 19.7047L20.2576 19.5598L20.1606 19.4263L20.152 19.3159L20.2067 19.2468L20.2643 19.2286L20.32 19.2334L20.3661 19.2746L20.4189 19.3418L20.4333 19.4177V19.5185ZM23.3037 16.8842L23.2989 16.9927L23.2557 17.2298L23.1952 17.4324L23.1261 17.61L23.0224 17.803L22.9043 17.969L22.7267 18.1764L22.5242 18.3703L22.4205 18.3953L22.3648 18.3703L22.3562 18.2964L22.4003 18.1975L22.4598 18.089L22.5683 17.946L22.6854 17.7866L22.7958 17.6138L22.9043 17.4362L22.9869 17.2634L23.0358 17.0858L23.0771 16.8833L23.0867 16.6577L23.0954 16.4551L23.0819 16.2775L23.0608 16.0721L23.0426 15.8782L23.031 15.7697L23.0906 15.7102L23.1299 15.7313L23.1597 15.8254L23.2192 16.0116L23.2682 16.2353L23.3027 16.4494V16.8842H23.3037Z" fill="white"/>
</g>
<defs>
<clipPath id="clip0_0_210">
<rect width="32" height="32" fill="white" transform="matrix(0 -1 1 0 0 32)"/>
</clipPath>
</defs>
</svg>
